<svg fill="none" height="148" viewBox="0 0 131 148" width="131" xmlns="http://www.w3.org/2000/svg" xmlns:xlink="http://www.w3.org/1999/xlink"><filter id="a" color-interpolation-filters="sRGB" filterUnits="userSpaceOnUse" height="134.6" width="114.8" x="15.7793" y="12.4111"><feFlood flood-opacity="0" result="BackgroundImageFix"/><feColorMatrix in="SourceAlpha" result="hardAlpha" type="matrix" values="0 0 0 0 0 0 0 0 0 0 0 0 0 0 0 0 0 0 127 0"/><feOffset dy="11"/><feGaussianBlur stdDeviation="11"/><feColorMatrix type="matrix" values="0 0 0 0 0.397708 0 0 0 0 0.47749 0 0 0 0 0.575 0 0 0 0.27 0"/><feBlend in2="BackgroundImageFix" mode="normal" result="effect1_dropShadow_3688_44881"/><feBlend in="SourceGraphic" in2="effect1_dropShadow_3688_44881" mode="normal" result="shape"/></filter><linearGradient id="b" gradientUnits="userSpaceOnUse" x1="73.1562" x2="73.1562" y1="21.3155" y2="114.988"><stop offset="0" stop-color="#fdfeff"/><stop offset=".9964" stop-color="#ecf0f5"/></linearGradient><g fill="#eaeef9"><path d="m122.35 69.0002c0 14.2-5.8 27-15.1 36.1998-9.1 9.1-21.7 14.6-35.6 14.6-13.8 0-26.4001-5.6-35.6001-14.6-9.3-9.1998-15.0999-21.9998-15.0999-36.1998 0-28.1 22.7-50.8 50.7-50.8s50.7 22.8 50.7 50.8z"/><path d="m117.95 35.7c2.264 0 4.1-1.8356 4.1-4.1s-1.836-4.1-4.1-4.1-4.1 1.8356-4.1 4.1 1.836 4.1 4.1 4.1z"/><path d="m123.95 19.7001c1.546 0 2.8-1.2536 2.8-2.8s-1.254-2.8-2.8-2.8-2.8 1.2536-2.8 2.8 1.254 2.8 2.8 2.8z"/><path d="m22.55 35.6c1.5464 0 2.8-1.2536 2.8-2.8s-1.2536-2.8-2.8-2.8-2.8 1.2536-2.8 2.8 1.2536 2.8 2.8 2.8z"/><path d="m5.45 89.6002c2.87188 0 5.2-2.3281 5.2-5.2s-2.32812-5.2-5.2-5.2-5.2 2.3281-5.2 5.2 2.32812 5.2 5.2 5.2z"/></g><g filter="url(#a)"><path d="m107.779 45.7111.8 64.3999c0 2.2-1.8 3.9-4 3.9h-62.7997c-2.2 0-4-1.8-4-3.9v-82.7999c0-2.2 1.8-3.9 4-3.9h45.5z" fill="url(#b)"/></g><g fill="#d5ddea"><path d="m70.4791 36.911h-22.1c-.7 0-1.3-.6-1.3-1.3s.6-1.3 1.3-1.3h22.1c.7 0 1.3.6 1.3 1.3s-.6 1.3-1.3 1.3z"/><path d="m59.9791 44.1112h-11.6c-.7 0-1.3-.6-1.3-1.3s.6-1.3 1.3-1.3h11.5c.7 0 1.3.6 1.3 1.3s-.6 1.3-1.2 1.3z"/><path d="m87.2793 23.4111v17.8c0 2.5 2.2 4.5 4.7 4.5h15.7997"/></g><path d="m57.0125 36.676 4.7516-16.76 19.5166 2.2481-6.8139 10.9223 5.2779 4.2168-11.3628 24.8536.6331-19.2416z" fill="#eaeef9"/><path d="m61.2299 17.4659-3.7817-5.6925" stroke="#a2abbe" stroke-width="2"/><path d="m71.315 14.6197.4443-14.419505" stroke="#a2abbe" stroke-width="2"/><path d="m80.3569 17.6002 6.0367-13.10264" stroke="#a2abbe" stroke-width="2"/><path d="m59.8213 89.579c-.42 0-.7561-.168-1.0921-.42-.5881-.5881-.5881-1.5963 0-2.1844 3.8645-3.7805 8.9893-5.8808 14.4501-5.8808 5.4609 0 10.5857 2.1003 14.4502 5.8808.5881.5881.5881 1.5963 0 2.1844-.588.5881-1.5962.5881-2.1843 0-3.2765-3.2765-7.6452-5.0408-12.2659-5.0408s-8.9893 1.7643-12.2658 5.0408c-.3361.252-.6721.42-1.0922.42z" fill="#989fb0"/><path d="m65.1141 67.0636 2.0163-2.0163c.5881-.5881.5881-1.5963 0-2.1844-.5881-.588-1.5962-.588-2.1843 0l-2.0163 2.0163-2.0163-2.0163c-.5881-.588-1.5963-.588-2.1843 0-.5881.5881-.5881 1.5963 0 2.1844l2.0163 2.0163-2.0163 2.0163c-.5881.5881-.5881 1.5962 0 2.1843.336.3361.6721.4201 1.0921.4201.4201 0 .7561-.168 1.0922-.4201l2.0163-2.0163 2.0163 2.0163c.3361.3361.6721.4201 1.0922.4201.42 0 .7561-.168 1.0921-.4201.5881-.5881.5881-1.5962 0-2.1843z" fill="#989fb0"/><path d="m85.5292 67.0636 2.0163-2.0163c.5881-.5881.5881-1.5963 0-2.1844-.5881-.588-1.5963-.588-2.1844 0l-2.0163 2.0163-2.0163-2.0163c-.5881-.588-1.5962-.588-2.1843 0-.5881.5881-.5881 1.5963 0 2.1844l2.0163 2.0163-2.0163 2.0163c-.5881.5881-.5881 1.5962 0 2.1843.336.3361.6721.4201 1.0922.4201.42 0 .7561-.168 1.0921-.4201l2.0163-2.0163 2.0163 2.0163c.3361.3361.6721.4201 1.0922.4201s.7561-.168 1.0922-.4201c.5881-.5881.5881-1.5962 0-2.1843z" fill="#989fb0"/></svg>