<svg fill="none" height="142" viewBox="0 0 157 142" width="157" xmlns="http://www.w3.org/2000/svg"><path d="m49.4216 122.544h88.4534" stroke="#cdd6e1" stroke-linecap="round" stroke-linejoin="round" stroke-miterlimit="10" stroke-width="2.38568"/><path d="m146.513 122.544h8.76" stroke="#cdd6e1" stroke-linecap="round" stroke-linejoin="round" stroke-miterlimit="10" stroke-width="2.38568"/><path d="m51.3598 115.823c2.6946 0 4.8789-2.184 4.8789-4.879 0-2.694-2.1843-4.879-4.8789-4.879s-4.879 2.185-4.879 4.879c0 2.695 2.1844 4.879 4.879 4.879z" fill="#b8bfcd"/><path d="m99.1253 95.5247c.0603 7.7103.7228 17.4683.9637 18.4913-.06 1.085-2.3491 4.518-4.2163 2.169-1.8673-2.349-5.662-7.409-3.9152-16.9258 1.7468-9.4568 7.1678-3.7345 7.1678-3.7345z" fill="#b8bfcd"/><path d="m50.6973 115.763c0 .06 0 .181.0602.241 0 .06.0603.181.0603.241.0602.06.0602.181.1204.241.0603.06.1205.121.1807.241.3012.422.8433.783 1.4456 1.144.1205.061.3012.121.4217.181.0602.06.1807.06.2409.121.0603.06.1807.06.241.12l.2409.06c.3012.121.6626.241 1.024.301.1807.061.3011.061.4818.121.1205 0 .241.06.4217.06.1204 0 .2409.06.3614.06.9637.121 1.8672.061 2.6503-.241 2.7105-1.024 3.7947-3.132 3.7947-3.132s.7228.181 1.8673.301c2.1684.302 5.7824.723 8.9146.422 1.024-.12 2.1082-.361 3.2526-.662.3614-.121.7228-.241 1.1445-.362.7228-.241 1.3854-.542 2.1082-.843 1.9274-.843 3.7345-1.988 5.2403-3.253.1807-.12.3614-.301.5421-.421.8433-.783 1.5661-1.627 2.1082-2.47 1.0842-1.867 2.5298-3.433 4.0959-4.939 2.3491-2.229 5.1199-4.1564 7.6497-6.2043.7827-.6023 1.5657-1.2649 2.2887-1.8673 2.349-2.0479 4.458-4.4573 5.903-7.228 1.566-3.0117 1.566-5.8427 1.325-9.1556 0-.1807-.361-2.3491-.241-2.4094 1.085-.7228 1.868-1.7467 2.289-3.0117.964-2.5298.603-5.7824-.542-7.8906-.12-.2409-.241-.4819-.361-.6626-1.205-2.1082-2.651-4.5778-4.277-6.2041l-2.951-2.9514h-25.66s-.3012 1.7467-.7228 3.9152c-.0602.1807-.0602.3614-.1205.5421-.0602.3614-.1204.7228-.2409 1.0842-.0602.1807-.0602.3614-.1205.5421 0 .0602 0 .0602-.0602.1205-.0602.4216-.1807.783-.241 1.2046-.2409 1.2047-.5421 2.2889-.9035 3.1924 0 .0603-.0602.1807-.0602.241-.1807.4818-.3614.9035-.5421 1.2047-1.4456 2.3491-8.7942 9.0953-13.914 12.89-5.1199 3.7948-7.4691 10.2398-8.7942 20.6602-1.5059 10.36-.9637 12.469-.7228 14.456z" fill="#eaeef9"/><path d="m96.9569 112.932c3.4331-.361 3.3731 0 5.3001 0 1.928 0 2.41.964 3.133 1.867.421.603 1.024 2.349 1.385 3.614.241.723-.301 1.386-1.024 1.446-2.168 0-6.0836.06-6.7461 0-.9638-.12-3.0117-.361-3.9152-1.867-.3012-.542-.4819-1.265-.6626-1.988-.241-1.385.6626-2.771 2.1082-2.951z" fill="#eaeef9"/><path d="m50.6972 115.763c.1807 1.988 5.1199 3.855 7.8304 2.831 2.7708-1.024 3.7948-3.132 3.7948-3.132s5.9631 1.205 10.7818.783c3.6141-.361 8.493-2.47 11.6854-5.18l-.4216-9.156s-.3614-8.0109-.7228-11.5044c-.3012-3.4936 2.4696-3.4334 2.3491-7.9509-.1807-4.5176 1.6263-12.5287 3.9754-19.8772l-8.1918-6.1439-5.6017 3.1924c-.5421 3.0117-1.4456 6.8065-2.2287 8.1918-1.4456 2.3492-8.7941 9.0954-13.914 12.8901s-7.469 10.2398-8.7942 20.6601c-1.3251 10.3-.783 12.408-.5421 14.396z" fill="#bfc8d6" opacity=".3"/><path d="m50.6973 115.763c0 .061 0 .181.0603.241 0 .061.0602.181.0602.241.0602.06.0602.181.1205.241.0602.06.1204.121.1807.241.3011.422.8432.783 1.4456 1.145.1205.06.3012.12.4216.18.0603.061.1807.061.241.121.0602.06.1807.06.2409.12l.2409.06c.3012.121.6626.241 1.024.302.1807.06.3012.06.4819.12.8433-.542 1.3251-.903 1.3251-.903s0 0-.3614-2.169c-.1204-.662-.2409-1.566-.4216-2.771-.7831-4.999-.2409-14.8774 6.445-14.5762-.7228-5.0597 2.048-10.6614 4.4573-14.2152 2.4696-3.4936 4.2766-1.5661 6.3848.8432.241-1.0239-.8432-5.1198-2.1684-8.7339 2.7105 3.2526 5.1199 4.3971 11.5649 4.9994-2.8912-2.4093-3.2526-3.6742-5.6017-8.9748 2.9514 1.3854 8.9748 3.0117 12.5889 3.4935 8.7339 1.1445 16.2632.7229 21.3232-2.3491.963-2.5298.602-5.7824-.543-7.8906-.12-.241-.24-.4819-.361-.6626-4.638-.4216-12.5286-1.0842-19.9374-1.7468-5.421-.4819-10.6011-.9637-14.0947-1.2649 0 .0602 0 .0602-.0602.1205-.0603.4216-.1807.783-.241 1.2046-.2409 1.2047-.5421 2.2889-.9035 3.1924 0 .0603-.0602.1808-.0602.241-.1807.4819-.3614.9035-.5421 1.2047-1.4456 2.3491-8.7942 9.0953-13.9141 12.89-5.1199 3.7948-7.469 10.2398-8.7941 20.6598-1.3854 10.3-.8433 12.409-.6024 14.396z" fill="#bfc8d6" opacity=".4"/><path d="m85.3317 119.317s-.4818-7.288-.5421-8.252c-.0602-.663-3.9754 2.47-7.5894-4.216-3.6141-6.686-4.1562-7.891-4.0357-9.5775-1.0842 8.4925 2.2889 14.2155 2.9514 17.2875.6626 3.072 1.265 2.951 1.265 2.951l6.0836 1.205z" fill="#b8bfcd"/><path d="m79.3084 114.378c3.4334-.422 3.3731 0 5.3006 0s2.4094 1.024 3.1322 1.988c.4216.602 1.024 2.529 1.3854 3.915.2409.783-.3012 1.506-1.024 1.506-2.1684 0-6.9872-.061-7.6497-.121-.9638-.12-2.1082-.301-2.9515-1.927-.3012-.603-.4819-1.386-.6626-2.169-.2409-1.506.6626-2.951 2.1082-3.192z" fill="#eaeef9"/><path d="m63.6475 115.402c1.5661.964 2.4696 3.252 2.9515 4.879.2409.783-.3012 1.506-1.024 1.506-2.1684 0-6.9872-.061-7.6497-.121-3.7948-.482-4.2164-4.638-1.3252-6.264 1.807-1.084 5.2404-1.145 7.0474 0z" fill="#eaeef9"/><path d="m105.359 68.5569c-.537.5026-1.142.954-1.755 1.3457-.835.5451-1.738 1.0391-2.65 1.4734-2.7939 1.3115-5.7669 2.2226-8.9102 2.367-2.5981.1275-5.358-.0262-7.9049-.8187-.8859-.2387-1.7888-.5965-2.5724-.9714-4.5145-2.2154-7.0868-4.0386-7.444-9.0986-.3571-5.0599-.1267-8.9869-.1267-8.9869.0001-.4259.4602-1.0392.588-1.4225.2386-.4599.409-.971.6476-1.431.4175-.9114.8861-1.8909 1.3718-2.7512 1.0735-1.8569 2.4281-3.4497 4.149-4.608 2.7772-1.8566 6.142-2.5803 9.4387-2.9291 2.3937-.2808 4.8725-.3913 7.2746.2394 2.087.5539 3.8755 1.5764 5.4765 2.9906 1.738 1.5165 3.101 3.3907 4.625 5.1201 0 0 1.32 3.7057 2.393 8.6635s-.895 7.3683-4.601 10.8177z" fill="#eaeef9"/><path d="m85.3159 60.7092c-.6304.6984-1.2185 2.9728-4.6853 2.129-4.9235-1.2443-5.3146-7.3946-3.0229-9.6687 4.0979-4.1139 9.0384-3.1762 10.4008 1.2535 1.405 4.7278-1.4232 4.949-2.6926 6.2862z" fill="#bfc8d6"/><path d="m75.692 46.1416c1.3205-1.8313 3.2712-1.3796 2.598.7244-1.0993 3.3816-3.2973 5.0339-3.4692 17.4707-.0513 2.1978-7.564-2.2668-7.8782-10.01-.085-1.4482 1.6613-2.0016 1.6613-2.0016 1.0478-.3321 5.0092-3.2705 7.0881-6.1835z" fill="#989fb0"/><path d="m102.999 66.521c.213 1.4907 0 2.9814-.545 4.2762-.724.4684-1.517.8857-2.309 1.303-2.4534 1.1411-5.0772 1.9415-7.7349 2.0775-2.2318.136-4.6936-.0602-6.9168-.7164-1.0221-1.1927-1.6438-2.5642-1.8736-4.1742-.6979-4.8896 3.0934-9.4465 8.46-10.2125 5.3071-.7575 10.2213 2.5568 10.9193 7.4464z" fill="#bfc8d6"/><path d="m82.5389 60.4365c1.943-.2773 3.2934-2.0773 3.016-4.0203-.2773-1.943-2.0773-3.2933-4.0203-3.016s-3.2933 2.0773-3.016 4.0203c.2774 1.943 2.0773 3.2933 4.0203 3.016z" fill="#fff"/><path d="m85.2483 56.8247c.2128 1.4907-.8607 2.9217-2.3515 3.1345-1.4907.2127-2.9217-.8607-3.1344-2.3515.2725.2045.5962.3408.954.2898.6559-.0937 1.1756-.7154 1.0735-1.431-.0936-.6559-.7069-1.116-1.3714-1.082.4175-.4855 1.0394-.8176 1.6953-.9113 1.5504-.2213 2.9132.8011 3.1345 2.3515z" fill="#989fb0"/><path d="m102.098 57.6445c1.943-.2773 3.293-2.0773 3.016-4.0203-.278-1.943-2.078-3.2933-4.021-3.016-1.9428.2773-3.2931 2.0773-3.0158 4.0203.2774 1.943 2.0768 3.2933 4.0208 3.016z" fill="#fff"/><g fill="#989fb0"><path d="m98.486 54.9353c.2128 1.4908 1.644 2.5643 3.134 2.3515 1.491-.2128 2.565-1.6437 2.352-3.1345-.205.2726-.477.494-.835.5451-.656.0936-1.329-.3579-1.431-1.0735-.094-.6559.367-1.2692 1.014-1.4224-.537-.3493-1.227-.4942-1.883-.4006-1.4903.2128-2.5723 1.5841-2.351 3.1344z"/><path d="m92.1648 59.6706c-.4771.0681-.9456.1959-1.4056.3832-.5708.264-1.4227.6898-1.312 1.465.1361.9541 2.5297 1.5251 3.126 1.44s2.7431-1.2434 2.5984-2.2571c-.1362-.954-1.0732-1.1245-1.8654-1.1331-.3663-.0086-.7922-.0086-1.1414.102z"/><path d="m92.7862 62.7462-.2214-.2726-.1363.3237s.119 2.1126-.2645 2.8366c.3578.3748.6559.3323.7667.2556.1874.0341.4855-.0084.6645-.4599-.4429-.5452-.809-2.6834-.809-2.6834z"/><path d="m80.5981 49.3961c-.8007.3577-1.4823.6983-2.0105 1.2605-.5282.5621-.9031 1.3458-1.031 2.155.0086.0596-.0511.0681-.1107.0767-.0596.0085-.0681-.0512-.0681-.0512-.0596-.4174.0512-.9199.179-1.3033.1193-.4429.3664-.8432.6816-1.1924.3152-.3493.639-.6388 1.0309-.8773.4003-.1788.8689-.3066 1.3033-.2469.0681.0511.1363.1023.0255.1789.0597-.0085.0597-.0085 0 0z"/><path d="m100.813 46.5109c.868.1194 1.618.2558 2.282.6477.665.392 1.244 1.0394 1.593 1.7806.009.0596.068.0511.128.0426s.051-.0682.051-.0682c-.06-.4174-.307-.8689-.536-1.2011-.239-.3919-.588-.7071-.989-.9542-.4-.2471-.792-.4345-1.235-.5539-.434-.0596-.92-.0512-1.32.1277-.051.0681-.043.1277.026.1788-.06.0086 0 0 0 0z"/><path d="m104.229 41.4601c-1.78-1.3888-3.526-.4094-2.292 1.4222 2.002 2.9391 4.574 3.9105 8.219 15.8026.664 2.0956 6.628-4.2924 4.763-11.8144-.324-1.4141-2.155-1.4569-2.155-1.4569-1.099-.0257-5.724-1.7384-8.535-3.9535z"/></g><path d="m1.72693 123.895h32.88777c1.0239 0 1.2046 1.506.1807 1.687-9.2761 1.927-20.4796 2.71-14.0345 6.626 10.9625 6.625 28.069 9.998 48.4281 6.204 18.3111-3.373 18.552-53.0062 19.3953-66.6191.1807-2.4094 2.1684-4.3368 4.5778-4.3368h1.5661c2.5298 0 4.638 2.0479 4.638 4.5777v8.1919" stroke="#aab2c2" stroke-linecap="round" stroke-linejoin="round" stroke-miterlimit="10" stroke-width="3.1809"/><path d="m99.6338 68.6446c.6912 2.9312-1.6944 4.3604-4.9188 5.121s-5.9975.5483-6.6889-2.3829c-.6915-2.9313 1.3349-5.8847 4.5593-6.6453 3.2243-.7606 6.357.9759 7.0484 3.9072z" fill="#989fb0"/><path d="m96.5351 95.5249c-.6023 0-1.0842-.4818-1.0842-1.0842v-4.2164c0-.6023.4819-1.0842 1.0842-1.0842.6024 0 1.0842.4819 1.0842 1.0842v4.2164c0 .6626-.4818 1.0842-1.0842 1.0842z" fill="#989fb0"/><path d="m102.137 95.5249c-.603 0-1.084-.4818-1.084-1.0842v-4.2164c0-.6023.481-1.0842 1.084-1.0842.602 0 1.084.4819 1.084 1.0842v4.2164c0 .6626-.482 1.0842-1.084 1.0842z" fill="#989fb0"/><path d="m104.968 90.2849h-11.0831v-1.2649c0-3.0719 2.4696-8.3725 5.5415-8.3725 3.0716 0 5.5416 5.3006 5.5416 8.3725z" fill="#989fb0"/><path d="m151.77 92.3927h-22.829c-.964 0-1.686-.7831-1.686-1.6866v-24.3345c0-.9637.783-1.6865 1.686-1.6865h22.829c.963 0 1.686.783 1.686 1.6865v24.3345c.061.9035-.723 1.6866-1.686 1.6866z" fill="#eaeef9"/><path d="m148.939 78.057c0 2.831-1.386 5.421-3.494 6.9871h-10.3c-2.108-1.5661-3.493-4.0959-3.493-6.9871 0-2.831 1.385-5.4211 3.493-6.9872h10.3c2.108 1.6263 3.494 4.1562 3.494 6.9872z" fill="#ccd3de"/><path d="m137.073 78.539c-.422 0-.783-.3614-.783-.7831v-2.59c0-.4217.361-.7831.783-.7831.421 0 .783.3614.783.7831v2.59c0 .4217-.362.7831-.783.7831z" fill="#989fb0"/><path d="m143.397 78.539c-.421 0-.783-.3614-.783-.7831v-2.59c0-.4217.362-.7831.783-.7831.422 0 .783.3614.783.7831v2.59c0 .4217-.361.7831-.783.7831z" fill="#989fb0"/><path d="m140.988 82.2734h-1.566c-.362 0-.723-.3012-.723-.7228v-.783c0-.8433.663-1.5059 1.506-1.5059s1.506.6626 1.506 1.5059v.783c0 .3614-.301.7228-.723.7228z" fill="#989fb0"/><path d="m130.025 68.3595c.566 0 1.024-.4585 1.024-1.024s-.458-1.024-1.024-1.024c-.565 0-1.024.4585-1.024 1.024s.459 1.024 1.024 1.024z" fill="#d2dae7"/><path d="m150.806 68.3595c.565 0 1.024-.4585 1.024-1.024s-.459-1.024-1.024-1.024c-.566 0-1.024.4585-1.024 1.024s.458 1.024 1.024 1.024z" fill="#d2dae7"/><path d="m130.025 90.8268c.566 0 1.024-.4585 1.024-1.024s-.458-1.024-1.024-1.024c-.565 0-1.024.4585-1.024 1.024s.459 1.024 1.024 1.024z" fill="#d2dae7"/><path d="m150.806 90.8268c.565 0 1.024-.4585 1.024-1.024s-.459-1.024-1.024-1.024c-.566 0-1.024.4585-1.024 1.024s.458 1.024 1.024 1.024z" fill="#d2dae7"/><path d="m82.2057 0 3.6932 1.34924.9575 24.14676-2.0062-.8375z" fill="#b8bfcd"/><path d="m85.0327 27.4033 1.8238.884v2.3728l-1.8238-.7444z" fill="#b8bfcd"/><path d="m89.9569 12.1431 3.6932 1.2096v15.5396l-2.0518-.8375z" fill="#b8bfcd"/><path d="m91.7808 30.6602 1.8694.8374v2.2332l-1.8694-.6978z" fill="#b8bfcd"/></svg>