<svg width="375" height="180" viewBox="0 0 375 180" fill="none" xmlns="http://www.w3.org/2000/svg">
<g clip-path="url(#clip0_2901_34388)">
<rect x="360" y="179" width="6.75" height="2.8" transform="rotate(41 360 179)" fill="#9DED1A" fill-opacity="0.4"/>
<rect x="222" y="162" width="5.75" height="2.8" transform="rotate(-9 222 162)" fill="#C9FCBE" fill-opacity="0.9"/>
<rect x="31" y="35" width="5.75" height="3.8" transform="rotate(173 31 35)" fill="#FC9E1C" fill-opacity="0.6"/>
<rect x="344" y="113" width="4.75" height="2.8" transform="rotate(-174 344 113)" fill="#F62584" fill-opacity="0.9"/>
<rect x="108" y="101" width="5.75" height="1.8" transform="rotate(139 108 101)" fill="#F54721" fill-opacity="0.8"/>
<rect x="332" y="130" width="7.75" height="2.8" transform="rotate(-146 332 130)" fill="#FFED36" fill-opacity="0.6"/>
<rect x="166" y="103" width="7.75" height="2.8" transform="rotate(34 166 103)" fill="#FFED36"/>
<rect x="280" y="32" width="7.75" height="2.8" transform="rotate(-21 280 32)" fill="#FC9E1C" fill-opacity="0.8"/>
<rect x="184" y="165" width="3.75" height="1.8" transform="rotate(-139 184 165)" fill="#FF21FB" fill-opacity="0.4"/>
<rect x="66" y="71" width="5.75" height="1.8" transform="rotate(75 66 71)" fill="#FC9E1C" fill-opacity="0.75"/>
<rect x="122" y="26" width="3.75" height="2.8" transform="rotate(-179 122 26)" fill="#03A3F5"/>
<rect x="27" y="131" width="7.75" height="3.8" transform="rotate(-11 27 131)" fill="#BA3E03" fill-opacity="0.4"/>
<rect x="197" y="178" width="3.75" height="2.8" transform="rotate(27 197 178)" fill="#9DED1A" fill-opacity="0.8"/>
<rect x="312" y="66" width="7.75" height="1.8" transform="rotate(-170 312 66)" fill="#03A3F5" fill-opacity="0.25"/>
<rect x="307" y="51" width="4.75" height="1.8" transform="rotate(-130 307 51)" fill="#C9FCBE" fill-opacity="0.8"/>
<rect x="135" y="173" width="3.75" height="3.8" transform="rotate(144 135 173)" fill="#FC9E1C" fill-opacity="0.8"/>
<rect x="270" y="21" width="7.75" height="2.8" transform="rotate(-70 270 21)" fill="#BA3E03" fill-opacity="0.75"/>
<rect x="367" y="159" width="6.75" height="1.8" transform="rotate(54 367 159)" fill="#9DED1A" fill-opacity="0.8"/>
<rect x="324" y="29" width="5.75" height="3.8" transform="rotate(144 324 29)" fill="#9DED1A" fill-opacity="0.4"/>
<rect x="122" y="76" width="3.75" height="1.8" transform="rotate(176 122 76)" fill="#9DED1A" fill-opacity="0.6"/>
<rect x="130" y="49" width="7.75" height="3.8" transform="rotate(70 130 49)" fill="#FC9E1C" fill-opacity="0.25"/>
<rect x="368" y="83" width="3.75" height="2.8" transform="rotate(-142 368 83)" fill="#FC9E1C" fill-opacity="0.5"/>
<rect x="153" y="126" width="5.75" height="3.8" transform="rotate(41 153 126)" fill="#4BC8EF" fill-opacity="0.8"/>
<rect x="204" y="73" width="3.75" height="3.8" transform="rotate(23 204 73)" fill="#C9FCBE" fill-opacity="0.75"/>
<rect x="75" y="114" width="4.75" height="2.8" transform="rotate(-16 75 114)" fill="#9AF5FC" fill-opacity="0.25"/>
<rect x="79" y="112" width="4.75" height="2.8" transform="rotate(125 79 112)" fill="#F54721" fill-opacity="0.5"/>
<rect x="160" y="87" width="5.75" height="3.8" transform="rotate(10 160 87)" fill="#F54721" fill-opacity="0.5"/>
<rect x="281" y="34" width="5.75" height="1.8" transform="rotate(147 281 34)" fill="#BA3E03"/>
<rect x="237" y="164" width="7.75" height="1.8" transform="rotate(-136 237 164)" fill="#03A3F5" fill-opacity="0.4"/>
<rect x="91" y="145" width="3.75" height="2.8" transform="rotate(-80 91 145)" fill="#F54721" fill-opacity="0.5"/>
<rect x="251" y="62" width="4.75" height="3.8" transform="rotate(8 251 62)" fill="#480CA7" fill-opacity="0.4"/>
<rect x="259" y="108" width="6.75" height="3.8" transform="rotate(165 259 108)" fill="#9DED1A" fill-opacity="0.75"/>
<rect x="159" y="10" width="4.75" height="2.8" transform="rotate(34 159 10)" fill="#03A3F5" fill-opacity="0.75"/>
<rect x="368" y="161" width="7.75" height="2.8" transform="rotate(-166 368 161)" fill="#F54721" fill-opacity="0.6"/>
<rect x="283" y="174" width="3.75" height="1.8" transform="rotate(-138 283 174)" fill="#9DED1A" fill-opacity="0.6"/>
<rect x="251" y="176" width="4.75" height="2.8" transform="rotate(-123 251 176)" fill="#FF21FB" fill-opacity="0.8"/>
<rect x="194" y="44" width="3.75" height="3.8" transform="rotate(-71 194 44)" fill="#9DED1A" fill-opacity="0.6"/>
<rect x="130" y="121" width="3.75" height="2.8" transform="rotate(-171 130 121)" fill="#F54721" fill-opacity="0.4"/>
<rect x="83" y="73" width="3.75" height="2.8" transform="rotate(16 83 73)" fill="#DCBCFA" fill-opacity="0.8"/>
<rect x="239" y="115" width="4.75" height="1.8" transform="rotate(-137 239 115)" fill="#FC9E1C" fill-opacity="0.5"/>
<rect x="263" y="32" width="6.75" height="2.8" transform="rotate(-162 263 32)" fill="#755FFE" fill-opacity="0.25"/>
<rect x="139" y="115" width="7.75" height="1.8" transform="rotate(-135 139 115)" fill="#BA3E03" fill-opacity="0.8"/>
<rect x="22" y="136" width="4.75" height="3.8" transform="rotate(128 22 136)" fill="#F54721" fill-opacity="0.5"/>
<rect x="129" y="97" width="3.75" height="2.8" transform="rotate(-151 129 97)" fill="#480CA7" fill-opacity="0.75"/>
<rect y="67" width="6.75" height="2.8" transform="rotate(-161 0 67)" fill="#F54721" fill-opacity="0.8"/>
<rect x="284" y="166" width="7.75" height="3.8" transform="rotate(80 284 166)" fill="#F62584" fill-opacity="0.6"/>
<rect x="38" y="99" width="3.75" height="2.8" transform="rotate(-32 38 99)" fill="#FC9E1C" fill-opacity="0.8"/>
<rect x="273" y="83" width="3.75" height="3.8" transform="rotate(100 273 83)" fill="#4BC8EF" fill-opacity="0.6"/>
<rect x="310" y="158" width="6.75" height="3.8" transform="rotate(-129 310 158)" fill="#03A3F5" fill-opacity="0.75"/>
<rect x="106" y="126" width="3.75" height="1.8" transform="rotate(-29 106 126)" fill="#9DED1A" fill-opacity="0.75"/>
<rect x="65" y="149" width="3.75" height="3.8" transform="rotate(-171 65 149)" fill="#DCBCFA" fill-opacity="0.9"/>
<rect x="277" y="77" width="5.75" height="3.8" transform="rotate(-35 277 77)" fill="#755FFE" fill-opacity="0.25"/>
<rect x="65" y="144" width="4.75" height="1.8" transform="rotate(171 65 144)" fill="#03A3F5" fill-opacity="0.6"/>
<rect x="192" y="92" width="5.75" height="3.8" transform="rotate(155 192 92)" fill="#F54721"/>
<rect x="304" y="19" width="6.75" height="2.8" transform="rotate(-108 304 19)" fill="#DCBCFA" fill-opacity="0.75"/>
<rect x="227" y="63" width="7.75" height="2.8" transform="rotate(-90 227 63)" fill="#FC9E1C" fill-opacity="0.5"/>
<rect x="313" y="148" width="4.75" height="2.8" transform="rotate(4 313 148)" fill="#4BC8EF" fill-opacity="0.5"/>
<rect x="16" y="94" width="6.75" height="1.8" transform="rotate(3 16 94)" fill="#F62584" fill-opacity="0.75"/>
<rect x="277" y="141" width="3.75" height="3.8" transform="rotate(-63 277 141)" fill="#BA3E03" fill-opacity="0.4"/>
<rect x="280" y="62" width="3.75" height="2.8" transform="rotate(-19 280 62)" fill="#03A3F5" fill-opacity="0.5"/>
<rect x="191" y="64" width="5.75" height="2.8" transform="rotate(-6 191 64)" fill="#03A3F5" fill-opacity="0.6"/>
<rect x="12" y="16" width="4.75" height="2.8" transform="rotate(94 12 16)" fill="#9DED1A" fill-opacity="0.5"/>
<rect x="161" y="71" width="5.75" height="1.8" transform="rotate(21 161 71)" fill="#FF21FB" fill-opacity="0.4"/>
<rect x="299" y="166" width="3.75" height="1.8" transform="rotate(91 299 166)" fill="#FC9E1C" fill-opacity="0.8"/>
<rect x="165" y="92" width="5.75" height="3.8" transform="rotate(138 165 92)" fill="#F62584" fill-opacity="0.75"/>
<rect x="366" y="20" width="3.75" height="1.8" transform="rotate(-85 366 20)" fill="#C9FCBE" fill-opacity="0.4"/>
<rect x="164" y="44" width="6.75" height="2.8" transform="rotate(-156 164 44)" fill="#4BC8EF" fill-opacity="0.8"/>
<circle cx="90.4375" cy="133.438" r="2.4375" fill="#BA3E03" fill-opacity="0.4"/>
<circle cx="290.438" cy="116.438" r="1.4375" fill="#F62584" fill-opacity="0.9"/>
<circle cx="199.938" cy="110.938" r="0.9375" fill="#FF21FB" fill-opacity="0.5"/>
<circle cx="63.9375" cy="105.938" r="1.9375" fill="#9AF5FC" fill-opacity="0.75"/>
<circle cx="258.938" cy="96.9375" r="1.9375" fill="#480CA7" fill-opacity="0.6"/>
<circle cx="360.438" cy="9.4375" r="2.4375" fill="#C9FCBE" fill-opacity="0.9"/>
<circle cx="7.4375" cy="64.4375" r="2.4375" fill="#03A3F5" fill-opacity="0.75"/>
<circle cx="296.938" cy="125.938" r="0.9375" fill="#FC9E1C" fill-opacity="0.75"/>
<circle cx="135.438" cy="114.438" r="2.4375" fill="#FF21FB" fill-opacity="0.25"/>
<circle cx="57.4375" cy="32.4375" r="2.4375" fill="#03A3F5" fill-opacity="0.6"/>
<circle cx="51.4375" cy="110.438" r="2.4375" fill="#FF21FB" fill-opacity="0.6"/>
<circle cx="11.9375" cy="87.9375" r="0.9375" fill="#DCBCFA" fill-opacity="0.6"/>
<circle cx="303.938" cy="46.9375" r="1.9375" fill="#4BC8EF" fill-opacity="0.5"/>
<circle cx="360.938" cy="162.938" r="0.9375" fill="#4BC8EF" fill-opacity="0.5"/>
<circle cx="374.438" cy="138.438" r="1.4375" fill="#FC9E1C" fill-opacity="0.8"/>
<circle cx="357.938" cy="77.9375" r="0.9375" fill="#C9FCBE" fill-opacity="0.6"/>
<circle cx="31.9375" cy="25.9375" r="0.9375" fill="#4BC8EF" fill-opacity="0.8"/>
<circle cx="187.438" cy="175.438" r="1.4375" fill="#9AF5FC"/>
<circle cx="148.438" cy="94.4375" r="2.4375" fill="#BA3E03" fill-opacity="0.8"/>
<circle cx="153.438" cy="5.4375" r="2.4375" fill="#BA3E03" fill-opacity="0.75"/>
<circle cx="204.438" cy="21.4375" r="2.4375" fill="#9AF5FC"/>
<circle cx="207.438" cy="107.438" r="2.4375" fill="#FC9E1C"/>
<circle cx="107.938" cy="40.9375" r="0.9375" fill="#4BC8EF" fill-opacity="0.6"/>
<circle cx="244.938" cy="171.938" r="2.9375" fill="#755FFE" fill-opacity="0.75"/>
<circle cx="233.938" cy="136.938" r="1.9375" fill="#C9FCBE" fill-opacity="0.5"/>
<circle cx="65.9375" cy="128.938" r="2.9375" fill="#C9FCBE" fill-opacity="0.4"/>
<circle cx="48.9375" cy="94.9375" r="0.9375" fill="#F62584" fill-opacity="0.25"/>
<circle cx="24.4375" cy="158.438" r="2.4375" fill="#4BC8EF" fill-opacity="0.25"/>
<circle cx="327.938" cy="169.938" r="1.9375" fill="#4BC8EF" fill-opacity="0.9"/>
<circle cx="160.438" cy="98.4375" r="1.4375" fill="#F62584" fill-opacity="0.9"/>
<circle cx="144.938" cy="136.938" r="0.9375" fill="#03A3F5" fill-opacity="0.8"/>
<circle cx="77.9375" cy="37.9375" r="2.9375" fill="#FC9E1C" fill-opacity="0.9"/>
<circle cx="358.438" cy="131.438" r="1.4375" fill="#9DED1A" fill-opacity="0.9"/>
<circle cx="320.438" cy="111.438" r="2.4375" fill="#755FFE" fill-opacity="0.4"/>
<circle cx="144.938" cy="118.938" r="0.9375" fill="#03A3F5" fill-opacity="0.6"/>
<circle cx="45.4375" cy="90.4375" r="2.4375" fill="#F62584" fill-opacity="0.8"/>
<circle cx="273.938" cy="65.9375" r="0.9375" fill="#4BC8EF" fill-opacity="0.6"/>
<circle cx="222.938" cy="57.9375" r="0.9375" fill="#FC9E1C" fill-opacity="0.8"/>
<circle cx="281.938" cy="150.938" r="1.9375" fill="#F54721" fill-opacity="0.4"/>
<circle cx="214.938" cy="28.9375" r="0.9375" fill="#480CA7" fill-opacity="0.8"/>
<circle cx="20.9375" cy="23.9375" r="2.9375" fill="#480CA7" fill-opacity="0.5"/>
<circle cx="319.938" cy="73.9375" r="0.9375" fill="#4BC8EF" fill-opacity="0.5"/>
<circle cx="16.4375" cy="167.438" r="1.4375" fill="#9AF5FC" fill-opacity="0.9"/>
<circle cx="191.938" cy="95.9375" r="2.9375" fill="#FFED36" fill-opacity="0.4"/>
<circle cx="292.938" cy="94.9375" r="1.9375" fill="#4BC8EF"/>
<circle cx="207.438" cy="161.438" r="2.4375" fill="#FF21FB" fill-opacity="0.6"/>
<circle cx="91.4375" cy="110.438" r="2.4375" fill="#FF21FB" fill-opacity="0.75"/>
<circle cx="149.938" cy="94.9375" r="0.9375" fill="#C9FCBE" fill-opacity="0.5"/>
<circle cx="240.938" cy="39.9375" r="0.9375" fill="#9AF5FC" fill-opacity="0.75"/>
<circle cx="24.9375" cy="155.938" r="2.9375" fill="#4BC8EF" fill-opacity="0.4"/>
<circle cx="339.938" cy="180.938" r="2.9375" fill="#FF21FB" fill-opacity="0.5"/>
<circle cx="221.438" cy="168.438" r="2.4375" fill="#F54721" fill-opacity="0.6"/>
<circle cx="123.938" cy="51.9375" r="0.9375" fill="#9AF5FC" fill-opacity="0.4"/>
<circle cx="61.9375" cy="103.938" r="2.9375" fill="#9DED1A" fill-opacity="0.9"/>
<circle cx="215.938" cy="33.9375" r="1.9375" fill="#C9FCBE" fill-opacity="0.25"/>
<circle cx="136.938" cy="114.938" r="2.9375" fill="#F54721" fill-opacity="0.5"/>
<circle cx="335.438" cy="109.438" r="2.4375" fill="#F54721" fill-opacity="0.8"/>
<circle cx="347.938" cy="56.9375" r="1.9375" fill="#FFED36" fill-opacity="0.25"/>
<circle cx="198.938" cy="58.9375" r="1.9375" fill="#9DED1A" fill-opacity="0.4"/>
<circle cx="41.4375" cy="149.438" r="2.4375" fill="#4BC8EF"/>
<circle cx="9.9375" cy="38.9375" r="1.9375" fill="#F54721" fill-opacity="0.5"/>
<circle cx="50.9375" cy="39.9375" r="0.9375" fill="#FFED36" fill-opacity="0.6"/>
<circle cx="142.938" cy="165.938" r="1.9375" fill="#9DED1A" fill-opacity="0.25"/>
<circle cx="109.938" cy="136.938" r="0.9375" fill="#FC9E1C" fill-opacity="0.5"/>
<circle cx="61.9375" cy="9.9375" r="1.9375" fill="#480CA7" fill-opacity="0.8"/>
<circle cx="234.938" cy="173.938" r="2.9375" fill="#03A3F5" fill-opacity="0.5"/>
<path d="M363.666 85.077L363.6 87.3136L365.254 88.8196L363.018 88.7535L361.512 90.4083L361.578 88.1717L359.923 86.6657L362.16 86.7318L363.666 85.077Z" fill="#03A3F5" fill-opacity="0.5"/>
<path d="M377.25 59.1105L376.587 62.0526L378.389 64.4708L375.447 63.8081L373.029 65.6102L373.692 62.6681L371.89 60.2498L374.832 60.9126L377.25 59.1105Z" fill="#DCBCFA" fill-opacity="0.9"/>
<path d="M301.739 107.857L300.447 108.037L300.585 109.334L299.783 108.305L298.728 109.073L299.218 107.864L298.026 107.335L299.318 107.155L299.18 105.857L299.982 106.887L301.037 106.118L300.546 107.328L301.739 107.857Z" fill="#03A3F5" fill-opacity="0.5"/>
<path d="M76.6686 57.4532L75.8321 55.944L74.1382 56.2732L75.3151 55.0113L74.4785 53.5021L76.0424 54.2313L77.2192 52.9693L77.0089 54.682L78.5728 55.4112L76.8789 55.7405L76.6686 57.4532Z" fill="#C9FCBE"/>
<path d="M336.932 91.9971L335.088 91.0165L333.585 92.4675L333.948 90.4104L332.103 89.4298L334.172 89.1391L334.535 87.082L335.45 88.9594L337.519 88.6687L336.016 90.1197L336.932 91.9971Z" fill="#C9FCBE" fill-opacity="0.25"/>
<path d="M77.7304 85.9838L76.9243 88.1899L79.1032 89.067L76.7896 89.4719L77.1194 91.7974L75.6119 89.9963L73.7629 91.4446L74.569 89.2385L72.3901 88.3614L74.7037 87.9565L74.3739 85.631L75.8814 87.4321L77.7304 85.9838Z" fill="#755FFE"/>
<path d="M28.0832 101.627L29.5907 103.428L31.4397 101.98L30.6336 104.186L32.8125 105.063L30.4989 105.468L30.8287 107.794L29.3212 105.993L27.4722 107.441L28.2783 105.235L26.0994 104.358L28.413 103.953L28.0832 101.627Z" fill="#03A3F5" fill-opacity="0.9"/>
<path d="M256.846 121.478L255.566 121.012L254.727 122.085L254.774 120.724L253.494 120.258L254.804 119.882L254.851 118.521L255.613 119.65L256.923 119.275L256.084 120.348L256.846 121.478Z" fill="#9DED1A" fill-opacity="0.8"/>
<path d="M49.5168 89.1976L50.8783 89.1501L51.2537 87.8406L51.7197 89.1207L53.0811 89.0732L52.0076 89.9119L52.4736 91.192L51.3442 90.4302L50.2707 91.2689L50.6462 89.9594L49.5168 89.1976Z" fill="#C9FCBE" fill-opacity="0.4"/>
<path d="M308.35 99.7084L306.892 98.9306L306.067 100.363L306.012 98.7112L304.359 98.7133L305.762 97.8392L304.933 96.4088L306.392 97.1866L307.216 95.7542L307.272 97.4061L308.925 97.404L307.522 98.2781L308.35 99.7084Z" fill="#DCBCFA" fill-opacity="0.9"/>
<path d="M280.316 36.9697L280.425 34.8837L278.475 34.1352L280.493 33.5946L280.602 31.5086L281.74 33.2604L283.757 32.7198L282.443 34.3431L283.581 36.0949L281.63 35.3464L280.316 36.9697Z" fill="#9DED1A" fill-opacity="0.8"/>
<path d="M243.205 76.5637L244.579 77.0554L245.847 76.3326L245.355 77.7065L246.078 78.9741L244.704 78.4824L243.436 79.2052L243.928 77.8313L243.205 76.5637Z" fill="#DCBCFA" fill-opacity="0.5"/>
<path d="M231.261 47.8568L230.068 48.386L230.559 49.5952L229.504 48.8269L228.702 49.8562L228.84 48.5586L227.547 48.3787L228.74 47.8494L228.25 46.6402L229.305 47.4085L230.107 46.3792L229.969 47.6768L231.261 47.8568Z" fill="#F54721"/>
<path d="M156.515 57.1889L157.657 56.4469L157.305 55.1311L158.363 55.9884L159.506 55.2465L159.018 56.5182L160.076 57.3755L158.716 57.3042L158.228 58.576L157.875 57.2602L156.515 57.1889Z" fill="#755FFE" fill-opacity="0.6"/>
<path d="M122.24 11.9374L120.895 9.60033L118.515 10.8694L119.867 8.53562L117.578 7.10946L120.274 7.11284L120.365 4.41766L121.711 6.75477L124.09 5.48575L122.739 7.81948L125.028 9.24565L122.331 9.24226L122.24 11.9374Z" fill="#4BC8EF" fill-opacity="0.8"/>
<path d="M251.077 108.849L252.479 110.054L254.306 109.774L253.101 111.176L253.38 113.003L251.979 111.798L250.151 112.077L251.357 110.676L251.077 108.849Z" fill="#9AF5FC" fill-opacity="0.5"/>
<path d="M188.651 84.3025L187.448 83.6629L186.468 84.6092L186.705 83.2677L185.502 82.6281L186.851 82.4385L187.088 81.097L187.685 82.3214L189.034 82.1318L188.054 83.0781L188.651 84.3025Z" fill="#03A3F5" fill-opacity="0.8"/>
<path d="M151.124 45.3717L149.513 45.9901L149.604 47.7133L148.518 46.3723L146.907 46.9907L147.847 45.5435L146.761 44.2025L148.427 44.6491L149.367 43.202L149.458 44.9251L151.124 45.3717Z" fill="#FFED36"/>
<path d="M52.5625 6.48982L50.6218 6.00335L50.0727 7.92732L49.5236 6.00335L47.5829 6.48982L48.9745 5.05232L47.5829 3.61482L49.5236 4.1013L50.0727 2.17732L50.6218 4.1013L52.5625 3.61482L51.1708 5.05232L52.5625 6.48982Z" fill="#9AF5FC" fill-opacity="0.5"/>
<path d="M153.125 157L152.576 155.076L150.635 155.562L152.027 154.125L150.635 152.688L152.576 153.174L153.125 151.25L153.674 153.174L155.615 152.688L154.223 154.125L155.615 155.562L153.674 155.076L153.125 157Z" fill="#BA3E03" fill-opacity="0.8"/>
<path d="M240.166 37.6102L239.955 36.1662L238.722 35.3863L240.166 35.1755L240.946 33.9421L241.156 35.3861L242.39 36.166L240.946 36.3768L240.166 37.6102Z" fill="#DCBCFA" fill-opacity="0.5"/>
<path d="M250.798 45.8897L249.689 44.5679L248.089 45.2142L249.003 43.7509L247.894 42.4291L249.568 42.8465L250.483 41.3832L250.603 43.1045L252.277 43.522L250.678 44.1684L250.798 45.8897Z" fill="#FC9E1C"/>
<path d="M44.2173 87.1489L45.2103 88.4701L46.563 87.5204L45.9153 89.041L47.4141 89.7377L45.7734 89.937L45.9195 91.5834L44.9265 90.2621L43.5737 91.2119L44.2215 89.6912L42.7226 88.9946L44.3634 88.7952L44.2173 87.1489Z" fill="#F54721" fill-opacity="0.4"/>
<path d="M357.208 56.7636L355.12 56.8365L354.544 58.8444L353.83 56.8816L351.742 56.9545L353.388 55.6685L352.674 53.7056L354.406 54.8737L356.052 53.5877L355.476 55.5956L357.208 56.7636Z" fill="#F62584" fill-opacity="0.5"/>
<path d="M175.076 90.4578L176.176 87.8662L174.051 86.0192L176.855 86.2646L177.955 83.673L178.589 86.4162L181.393 86.6616L178.98 88.1116L179.614 90.8548L177.489 89.0078L175.076 90.4578Z" fill="#03A3F5" fill-opacity="0.4"/>
<path d="M12.528 107.333L10.398 108.323L11.3185 110.484L9.39618 109.135L7.98503 111.012L8.19267 108.673L5.86107 108.389L7.99101 107.399L7.07056 105.239L8.99285 106.588L10.404 104.711L10.1964 107.05L12.528 107.333Z" fill="#9AF5FC" fill-opacity="0.8"/>
<path d="M44.4853 111.189L45.8457 111.118L46.1983 109.802L46.6865 111.074L48.0469 111.002L46.9882 111.86L47.4764 113.131L46.3339 112.389L45.2752 113.247L45.6278 111.931L44.4853 111.189Z" fill="#F54721" fill-opacity="0.6"/>
<path d="M142.624 89.0625L143.636 89.974L144.816 89.2929L144.262 90.5374L145.274 91.4489L143.919 91.3065L143.365 92.551L143.082 91.2185L141.727 91.0761L142.907 90.395L142.624 89.0625Z" fill="#9DED1A" fill-opacity="0.6"/>
<path d="M350.41 11.0064L350.739 9.6846L349.584 8.96271L350.943 8.86768L351.273 7.54588L351.783 8.80895L353.142 8.71392L352.098 9.58957L352.609 10.8526L351.453 10.1308L350.41 11.0064Z" fill="#FC9E1C" fill-opacity="0.5"/>
<path d="M139.649 34.6449L141.813 35.2125L143.653 33.9389L143.086 36.1033L144.359 37.943L142.195 37.3754L140.355 38.649L140.923 36.4847L139.649 34.6449Z" fill="#FF21FB"/>
<path d="M37.9375 37.6442L40.5533 38.2998L41.2933 35.7067L42.0334 38.2998L44.6492 37.6442L42.7735 39.5817L44.6492 41.5192L42.0334 40.8635L41.2933 43.4567L40.5533 40.8635L37.9375 41.5192L39.8132 39.5817L37.9375 37.6442Z" fill="#9AF5FC" fill-opacity="0.4"/>
<path d="M247.733 154.726L246.705 155.62L247.237 156.874L246.069 156.172L245.041 157.066L245.347 155.738L244.18 155.037L245.537 154.918L245.843 153.591L246.376 154.845L247.733 154.726Z" fill="#FC9E1C" fill-opacity="0.4"/>
<path d="M150.517 118.198L151.878 118.15L152.254 116.841L152.72 118.121L154.081 118.073L153.008 118.912L153.474 120.192L152.344 119.43L151.271 120.269L151.646 118.959L150.517 118.198Z" fill="#C9FCBE" fill-opacity="0.5"/>
<path d="M105.003 64.9319L105.973 62.9156L105.074 60.8667L107.09 61.8368L109.139 60.9376L108.169 62.9539L109.068 65.0029L107.052 64.0327L105.003 64.9319Z" fill="#03A3F5" fill-opacity="0.4"/>
<path d="M101.416 173.26L100.079 171.772L98.548 173.06L99.1686 171.158L97.2877 170.476L99.2452 170.062L98.8953 168.092L100.232 169.581L101.763 168.293L101.143 170.195L103.024 170.877L101.066 171.29L101.416 173.26Z" fill="#755FFE" fill-opacity="0.75"/>
<path d="M353.077 50.3343L355.161 50.4801L355.943 48.5433L356.449 50.5701L358.532 50.7158L356.761 51.8227L357.266 53.8495L355.666 52.5068L353.895 53.6137L354.677 51.677L353.077 50.3343Z" fill="#755FFE" fill-opacity="0.5"/>
<path d="M357.538 180.35L357.12 182.306L359.062 182.788L357.158 183.404L357.712 185.326L356.227 183.986L354.839 185.427L355.257 183.47L353.315 182.989L355.219 182.373L354.665 180.45L356.15 181.791L357.538 180.35Z" fill="#755FFE" fill-opacity="0.75"/>
<path d="M23.4946 26.8457L22.5511 28.4352L23.1436 30.1861L21.5541 29.2426L19.8032 29.835L20.7467 28.2455L20.1543 26.4946L21.7437 27.4382L23.4946 26.8457Z" fill="#FF21FB" fill-opacity="0.75"/>
<path d="M59.6135 14.6135L60.7548 12.5607L58.74 11.3535L61.0884 11.3155L61.1265 8.96703L62.3337 10.9818L64.3865 9.84054L63.2452 11.8934L65.26 13.1005L62.9116 13.1386L62.8735 15.487L61.6663 13.4722L59.6135 14.6135Z" fill="#F62584" fill-opacity="0.9"/>
<path d="M273.313 84.644L273.738 87.2361L275.982 88.601L273.39 89.0257L272.025 91.27L271.6 88.6778L269.356 87.313L271.948 86.8882L273.313 84.644Z" fill="#BA3E03" fill-opacity="0.5"/>
<path d="M10.2586 37.9859L12.0686 38.3605L13.5312 37.2303L13.1566 39.0404L14.2868 40.503L12.4767 40.1284L11.0141 41.2586L11.3888 39.4485L10.2586 37.9859Z" fill="#DCBCFA" fill-opacity="0.75"/>
<path d="M-1.33203 150.095L-3.994 149.178L-5.68832 151.427L-5.63919 148.612L-8.30116 147.695L-5.60882 146.872L-5.55969 144.057L-3.94487 146.363L-1.25253 145.54L-2.94685 147.789L-1.33203 150.095Z" fill="#480CA7" fill-opacity="0.9"/>
<path d="M158.102 17.4831L159.398 17.9041L160.198 16.802L160.198 18.1642L161.494 18.5852L160.198 19.0062L160.198 20.3684L159.398 19.2663L158.102 19.6873L158.903 18.5852L158.102 17.4831Z" fill="#C9FCBE"/>
<path d="M167.394 47.5145L165.935 49.2111L166.273 51.4229L164.577 49.964L162.365 50.3022L163.824 48.6057L163.485 46.3938L165.182 47.8527L167.394 47.5145Z" fill="#F62584" fill-opacity="0.6"/>
<path d="M276.871 82.8495L277.52 84.7421L279.433 84.1548L278.118 85.6631L279.583 87.0258L277.62 86.6416L277.172 88.5917L276.523 86.6991L274.61 87.2864L275.925 85.7781L274.46 84.4154L276.423 84.7996L276.871 82.8495Z" fill="#FC9E1C" fill-opacity="0.6"/>
<path d="M183.607 167.255L182.427 166.573L181.414 167.485L181.698 166.153L180.518 165.471L181.873 165.329L182.156 163.996L182.71 165.241L184.065 165.099L183.053 166.01L183.607 167.255Z" fill="#FC9E1C" fill-opacity="0.25"/>
<path d="M224.336 36.2616L222.642 34.0131L219.98 34.9297L221.595 32.6235L219.9 30.3751L222.593 31.1982L224.207 28.892L224.257 31.7069L226.949 32.5301L224.287 33.4467L224.336 36.2616Z" fill="#C9FCBE"/>
<path d="M289.339 14.4124L289.67 16.231L291.265 17.1637L289.447 17.4944L288.514 19.0903L288.183 17.2717L286.588 16.3389L288.406 16.0082L289.339 14.4124Z" fill="#FFED36" fill-opacity="0.5"/>
<path d="M76.4775 65.1544L75.9872 66.3636L77.1799 66.8928L75.8875 67.0728L76.0255 68.3704L75.2235 67.3411L74.1688 68.1094L74.6591 66.9002L73.4664 66.3709L74.7588 66.191L74.6208 64.8934L75.4228 65.9227L76.4775 65.1544Z" fill="#FF21FB" fill-opacity="0.6"/>
<path d="M25.4607 144.163L28.1159 142.733L28.7587 139.786L30.1888 142.441L33.1353 143.084L30.4801 144.514L29.8373 147.461L28.4072 144.805L25.4607 144.163Z" fill="#C9FCBE" fill-opacity="0.9"/>
<path d="M93.4342 23.5888L94.7487 21.9655L93.611 20.2137L95.5611 20.9623L96.8756 19.3389L96.7663 21.4249L98.7164 22.1735L96.6988 22.7141L96.5894 24.8L95.4518 23.0482L93.4342 23.5888Z" fill="#480CA7" fill-opacity="0.25"/>
<path d="M288.013 65.2275L285.391 65.379L283.799 67.4683L283.647 64.846L281.558 63.254L284.181 63.1025L285.772 61.0132L285.924 63.6356L288.013 65.2275Z" fill="#FFED36" fill-opacity="0.75"/>
<path d="M287.626 3.83063L289.024 5.38292L290.932 4.53332L289.888 6.34229L291.286 7.89458L289.242 7.46029L288.198 9.26925L287.98 7.19188L285.937 6.75759L287.845 5.908L287.626 3.83063Z" fill="#480CA7" fill-opacity="0.9"/>
<path d="M271.872 34.2243L274.676 33.9789L275.31 31.2357L276.41 33.8273L279.214 33.5819L277.09 35.429L278.19 38.0205L275.776 36.5705L273.652 38.4175L274.285 35.6743L271.872 34.2243Z" fill="#9AF5FC" fill-opacity="0.5"/>
<path d="M251.077 83.1514L250.748 84.8453L252.257 85.6818L250.544 85.8921L250.215 87.5859L249.486 86.0221L247.773 86.2324L249.035 85.0555L248.306 83.4917L249.815 84.3282L251.077 83.1514Z" fill="#480CA7" fill-opacity="0.75"/>
<path d="M103.532 41.6983L104.568 39.4759L102.775 37.8036L105.208 38.1024L106.245 35.8801L106.713 38.2871L109.146 38.586L107.002 39.7747L107.47 42.1818L105.676 40.5095L103.532 41.6983Z" fill="#BA3E03" fill-opacity="0.6"/>
<path d="M288.679 1.32062L290.359 2.09283L292.038 1.32062L291.266 3L292.038 4.67938L290.359 3.90717L288.679 4.67938L289.452 3L288.679 1.32062Z" fill="#03A3F5" fill-opacity="0.5"/>
<path d="M279.223 75.7441L278.085 73.9923L276.068 74.5329L277.382 72.9096L276.245 71.1578L278.195 71.9063L279.509 70.283L279.4 72.369L281.35 73.1175L279.332 73.6582L279.223 75.7441Z" fill="#F54721" fill-opacity="0.25"/>
<path d="M177.059 152.426L176.844 155.044L178.691 156.911L176.073 156.697L174.206 158.544L174.421 155.926L172.574 154.059L175.192 154.274L177.059 152.426Z" fill="#C9FCBE" fill-opacity="0.6"/>
<path d="M111.875 56.9673L112.405 58.3268L113.782 58.8093L112.423 59.3395L111.94 60.7167L111.41 59.3572L110.033 58.8747L111.392 58.3445L111.875 56.9673Z" fill="#480CA7"/>
<path d="M162.846 77.4722L163.265 80.1363L165.941 79.8043L163.843 81.4987L165.469 83.6504L162.952 82.6808L161.902 85.1645L161.483 82.5004L158.807 82.8324L160.905 81.138L159.279 78.9863L161.796 79.9559L162.846 77.4722Z" fill="#DCBCFA" fill-opacity="0.75"/>
<path d="M373.707 84.8519L372.361 85.065L372.148 86.4105L371.53 85.1967L370.184 85.4098L371.147 84.4466L370.529 83.2328L371.743 83.8512L372.706 82.888L372.493 84.2335L373.707 84.8519Z" fill="#03A3F5" fill-opacity="0.75"/>
<path d="M325.509 98.0316L327.001 95.644L325.191 93.4873L327.923 94.1684L329.415 91.7809L329.611 94.5894L332.343 95.2705L329.733 96.3251L329.929 99.1336L328.12 96.9769L325.509 98.0316Z" fill="#9DED1A" fill-opacity="0.25"/>
<path d="M340.263 49.3803L341.015 47.9085L339.569 47.109L341.219 47.0246L341.188 45.3721L342.087 46.7594L343.503 45.9063L342.75 47.3781L344.197 48.1775L342.546 48.262L342.577 49.9145L341.679 48.5272L340.263 49.3803Z" fill="#FFED36" fill-opacity="0.25"/>
<path d="M276.992 159.294L276.586 161.097L277.69 162.579L275.887 162.173L274.405 163.277L274.811 161.474L273.706 159.992L275.51 160.398L276.992 159.294Z" fill="#F54721" fill-opacity="0.75"/>
<path d="M132.941 53.5737L133.312 51.2543L131.005 50.809L133.199 49.9701L132.432 47.7502L134.255 49.2306L135.794 47.4561L135.424 49.7755L137.73 50.2207L135.536 51.0597L136.303 53.2795L134.48 51.7991L132.941 53.5737Z" fill="#DCBCFA" fill-opacity="0.25"/>
<path d="M154.687 95.356L154.388 92.9222L151.981 92.4543L154.203 91.418L153.905 88.9842L155.577 90.7776L157.799 89.7413L156.611 91.8859L158.283 93.6793L155.876 93.2114L154.687 95.356Z" fill="#BA3E03" fill-opacity="0.75"/>
<path d="M171.07 15.7557L175.13 11.5507L176.742 17.1699L171.07 15.7557Z" fill="#BA3E03" fill-opacity="0.9"/>
<path d="M192.329 113.149L192.159 109.906L195.053 111.38L192.329 113.149Z" fill="#03A3F5" fill-opacity="0.75"/>
<path d="M167.63 88.8234L164.976 83.6148L170.813 83.9208L167.63 88.8234Z" fill="#FF21FB" fill-opacity="0.8"/>
<path d="M327.006 132.59L324.423 133.187L323.826 130.603L326.41 130.006L327.006 132.59Z" fill="#F62584" fill-opacity="0.9"/>
<path d="M248.127 129.9L245.689 128.376L245.789 125.503L248.327 124.153L250.766 125.677L250.665 128.55L248.127 129.9Z" fill="#755FFE" fill-opacity="0.6"/>
<path d="M177.181 112.546L175.832 111.244L176.286 109.425L178.088 108.908L179.437 110.21L178.983 112.03L177.181 112.546Z" fill="#F54721" fill-opacity="0.5"/>
<path d="M370.35 81.4615L374.238 80.2728L375.427 84.161L371.538 85.3497L370.35 81.4615Z" fill="#9AF5FC" fill-opacity="0.9"/>
<path d="M95.4795 167.967L98.2775 166.079L101.311 167.559L101.546 170.926L98.7484 172.813L95.7149 171.333L95.4795 167.967Z" fill="#480CA7"/>
<path d="M9.37153 109.654L13.2119 108.18L12.5684 112.243L9.37153 109.654Z" fill="#480CA7" fill-opacity="0.5"/>
<path d="M95.3624 70.5119L91.3782 72.7204L88.0466 69.6137L89.9718 65.4851L94.4932 66.0403L95.3624 70.5119Z" fill="#BA3E03"/>
<path d="M327.902 127.872L325.008 129.347L325.178 126.104L327.902 127.872Z" fill="#4BC8EF" fill-opacity="0.25"/>
<path d="M183.827 67.3938L187.886 69.4619L187.174 73.9611L182.674 74.6738L180.606 70.6149L183.827 67.3938Z" fill="#03A3F5" fill-opacity="0.25"/>
<path d="M185.806 64.2097L189.191 61.1616L193.136 63.4392L192.189 67.895L187.658 68.3712L185.806 64.2097Z" fill="#03A3F5" fill-opacity="0.8"/>
<path d="M30.3215 159.004L36.1917 162.258L30.4387 165.715L30.3215 159.004Z" fill="#755FFE" fill-opacity="0.75"/>
<path d="M81.2354 169.633L83.1227 166.835L86.4895 167.071L87.969 170.104L86.0817 172.902L82.7149 172.667L81.2354 169.633Z" fill="#9AF5FC"/>
<path d="M301.77 71.4151L299.622 71.9109L298.487 70.0216L299.933 68.358L301.962 69.2193L301.77 71.4151Z" fill="#C9FCBE" fill-opacity="0.9"/>
<path d="M321.141 4.30052L318.214 0.271901L323.166 -0.248614L321.141 4.30052Z" fill="#F62584" fill-opacity="0.4"/>
<path d="M188.618 89.6113L192.445 90.2175L193.834 93.8351L191.395 96.8466L187.568 96.2404L186.179 92.6228L188.618 89.6113Z" fill="#9DED1A" fill-opacity="0.6"/>
<path d="M80.8366 174.868L79.3905 176.531L77.3615 175.67L77.5536 173.474L79.7013 172.979L80.8366 174.868Z" fill="#DCBCFA" fill-opacity="0.25"/>
<path d="M292.9 29.8732L289.926 32.6462L287.153 29.6726L290.127 26.8997L292.9 29.8732Z" fill="#C9FCBE" fill-opacity="0.4"/>
<path d="M220.327 177.816L215.838 180.959L212.695 176.47L217.184 173.327L220.327 177.816Z" fill="#4BC8EF" fill-opacity="0.25"/>
<path d="M170.589 174.434L169.378 171.279L172.004 169.152L174.839 170.993L173.964 174.257L170.589 174.434Z" fill="#F54721"/>
<path d="M199.167 71.7875L203.447 70.2295L206.252 73.8191L203.705 77.5957L199.326 76.34L199.167 71.7875Z" fill="#F62584" fill-opacity="0.4"/>
<path d="M77.5484 120.593L70.902 121.527L73.4163 115.304L77.5484 120.593Z" fill="#755FFE" fill-opacity="0.9"/>
<path d="M152.256 145.777L147.446 147.066L148.735 142.256L152.256 145.777Z" fill="#C9FCBE" fill-opacity="0.4"/>
<path d="M302.626 7.08289L300.529 5.96789L300.447 3.59434L302.461 2.33578L304.558 3.45077L304.641 5.82433L302.626 7.08289Z" fill="#F62584" fill-opacity="0.6"/>
<path d="M63.737 2.61975L64.2697 5.36043L61.8278 6.71401L59.7859 4.80988L60.9658 2.27949L63.737 2.61975Z" fill="#F54721" fill-opacity="0.75"/>
<path d="M83.9963 77.8475L85.145 74.6913L88.3012 75.8401L87.1525 78.9963L83.9963 77.8475Z" fill="#03A3F5" fill-opacity="0.6"/>
<path d="M224.726 22.7326L225.122 25.956L222.132 24.6871L224.726 22.7326Z" fill="#9DED1A" fill-opacity="0.8"/>
<path d="M151.679 61.6794L152.116 64.437L149.628 65.7045L147.654 63.7303L148.922 61.2426L151.679 61.6794Z" fill="#03A3F5"/>
<path d="M82.0201 37.5845L78.0911 37.0323L77.4022 33.125L80.9053 31.2624L83.7593 34.0185L82.0201 37.5845Z" fill="#F54721" fill-opacity="0.25"/>
<path d="M313.65 141.708L313.591 145.067L310.233 145.008L310.292 141.65L313.65 141.708Z" fill="#9AF5FC" fill-opacity="0.25"/>
<path d="M358.83 38.966L356.099 38.3855L355.808 35.6088L358.358 34.4732L360.226 36.5481L358.83 38.966Z" fill="#9AF5FC" fill-opacity="0.4"/>
<path d="M41.196 32.1353L42.2981 30.6184L44.1628 30.8144L44.9254 32.5273L43.8234 34.0442L41.9586 33.8482L41.196 32.1353Z" fill="#4BC8EF"/>
<path d="M245 54.625L246.641 52.3662L249.296 53.229V56.021L246.641 56.8838L245 54.625Z" fill="#FC9E1C" fill-opacity="0.5"/>
<path d="M293.478 166.154L293.801 168.786L291.169 169.109L290.846 166.478L293.478 166.154Z" fill="#03A3F5" fill-opacity="0.25"/>
<path d="M139.628 152.876L137.458 151.119L138.459 148.512L141.247 148.658L141.97 151.355L139.628 152.876Z" fill="#480CA7" fill-opacity="0.25"/>
<path d="M32.23 162.266L28.1944 162.761L27.6989 158.725L31.7345 158.23L32.23 162.266Z" fill="#480CA7"/>
<path d="M321.438 17.4765L325.4 18.3911L324.485 22.3528L320.524 21.4381L321.438 17.4765Z" fill="#480CA7" fill-opacity="0.5"/>
<path d="M37.3533 156.801L32.5912 158.257L33.7114 153.405L37.3533 156.801Z" fill="#4BC8EF" fill-opacity="0.8"/>
<path d="M336.917 1.62645L338.032 -0.470554L340.406 -0.55344L341.664 1.46067L340.549 3.55767L338.176 3.64056L336.917 1.62645Z" fill="#FFED36" fill-opacity="0.6"/>
<path d="M172.266 13.2588L169.273 14.7836L167.749 11.7909L170.741 10.2661L172.266 13.2588Z" fill="#4BC8EF"/>
<path d="M183.46 137.576L179.606 137.171L178.03 133.631L180.308 130.496L184.162 130.901L185.738 134.441L183.46 137.576Z" fill="#9AF5FC" fill-opacity="0.25"/>
<path d="M144.407 139.548L141.993 135.685L144.921 132.196L149.145 133.902L148.827 138.446L144.407 139.548Z" fill="#9DED1A" fill-opacity="0.8"/>
<path d="M85.2603 177.416L88.2445 175.829L90.6757 178.177L89.1941 181.215L85.8472 180.744L85.2603 177.416Z" fill="#BA3E03" fill-opacity="0.8"/>
</g>
<defs>
<clipPath id="clip0_2901_34388">
<rect width="375" height="180" fill="white"/>
</clipPath>
</defs>
</svg>
