<svg width="210" height="146" viewBox="0 0 210 146" fill="none" xmlns="http://www.w3.org/2000/svg">
<defs>
<filter id="filter0_d_2781_31640" x="12.4736" y="0.0598145" width="183.313" height="133.402" filterUnits="userSpaceOnUse" color-interpolation-filters="sRGB">
<feFlood flood-opacity="0" result="BackgroundImageFix"/>
<feColorMatrix in="SourceAlpha" type="matrix" values="0 0 0 0 0 0 0 0 0 0 0 0 0 0 0 0 0 0 127 0" result="hardAlpha"/>
<feOffset dy="11"/>
<feGaussianBlur stdDeviation="11"/>
<feColorMatrix type="matrix" values="0 0 0 0 0.397708 0 0 0 0 0.47749 0 0 0 0 0.575 0 0 0 0.27 0"/>
<feBlend mode="normal" in2="BackgroundImageFix" result="effect1_dropShadow_2781_31640"/>
<feBlend mode="normal" in="SourceGraphic" in2="effect1_dropShadow_2781_31640" result="shape"/>
</filter>
<linearGradient id="paint0_linear_2781_31640" x1="104.13" y1="48.0043" x2="104.085" y2="101.426" gradientUnits="userSpaceOnUse">
<stop stop-color="white"/>
<stop offset="0.9964" stop-color="#ECF0F5"/>
</linearGradient>
<linearGradient id="paint1_linear_2781_31640" x1="120.778" y1="44.7224" x2="143.196" y2="69.1314" gradientUnits="userSpaceOnUse">
<stop stop-color="#BCCBE1"/>
<stop offset="0.9942" stop-color="white" stop-opacity="0"/>
</linearGradient>
<linearGradient id="paint2_linear_2781_31640" x1="58.5752" y1="35.2325" x2="93.7781" y2="48.9467" gradientUnits="userSpaceOnUse">
<stop stop-color="#E2E8F0"/>
<stop offset="0.9942" stop-color="white" stop-opacity="0"/>
</linearGradient>
</defs>
<path d="M104.552 132.023C140.314 132.023 169.453 102.874 169.453 67.0722C169.332 31.1495 140.314 2 104.552 2C68.67 2 39.6514 31.1495 39.6514 66.9513C39.6514 102.874 68.67 132.023 104.552 132.023Z" fill="#EAEEF9"/>
<g filter="url(#filter0_d_2781_31640)">
<path d="M173.787 75.297C173.787 89.2065 162.589 100.455 148.622 100.455C148.381 100.455 146.334 100.455 131.283 100.455C120.807 100.455 104.07 100.455 77.3394 100.455H64.576C47.8391 100.818 34.4736 87.3922 34.4736 71.1846C34.4736 54.8561 47.9595 41.3094 64.9372 42.1561C79.5067 -3.56377 146.213 2.84669 151.873 50.1389C164.395 51.7113 173.787 62.3551 173.787 75.297Z" fill="url(#paint0_linear_2781_31640)"/>
</g>
<path d="M148.622 100.455C162.469 100.455 173.787 89.2064 173.787 75.2969C173.787 61.3875 162.469 50.1389 148.622 50.1389C134.775 50.1389 123.456 61.3875 123.456 75.2969C123.456 89.2064 134.775 100.455 148.622 100.455Z" fill="url(#paint1_linear_2781_31640)"/>
<path d="M107.562 100.697C132.246 100.697 152.354 80.6188 152.354 55.8237C152.354 31.0285 132.246 10.9504 107.562 10.9504C82.8779 10.9504 62.7695 31.0285 62.7695 55.8237C62.7695 80.6188 82.7575 100.697 107.562 100.697Z" fill="url(#paint2_linear_2781_31640)"/>
<path d="M90.9945 67.3369C92.8905 67.3369 94.4948 65.7254 94.4948 63.8208C94.4948 61.9162 92.8905 60.3047 90.9945 60.3047C89.0985 60.3047 87.4941 61.9162 87.4941 63.8208C87.4941 65.7254 89.0985 67.3369 90.9945 67.3369Z" fill="#989FB0"/>
<path d="M117.83 67.3369C119.726 67.3369 121.331 65.7254 121.331 63.8208C121.331 61.9162 119.726 60.3047 117.83 60.3047C115.934 60.3047 114.33 61.9162 114.33 63.8208C114.33 65.8719 115.934 67.3369 117.83 67.3369Z" fill="#989FB0"/>
<path d="M90.8581 52.1883L83.1582 56.3645L84.1976 58.2981L91.8975 54.1219L90.8581 52.1883Z" fill="#989FB0"/>
<path d="M117.355 52.1325L116.315 54.0664L124.016 58.2418L125.055 56.3079L117.355 52.1325Z" fill="#989FB0"/>
<path d="M104.413 75.5411C106.668 75.5411 108.497 74.1637 108.497 72.4645C108.497 70.7654 106.668 69.3879 104.413 69.3879C102.157 69.3879 100.329 70.7654 100.329 72.4645C100.329 74.1637 102.157 75.5411 104.413 75.5411Z" fill="#989FB0"/>
<path d="M20.5725 19.3633C20.5725 19.3633 3.74097 23.656 8.84142 27.0902C13.9419 30.3526 26.0129 36.019 37.4039 32.2414C48.7949 28.4638 37.4039 23.1409 37.5739 23.1409C37.744 23.1409 20.5725 19.3633 20.5725 19.3633Z" fill="#CED7E2"/>
<path d="M0 17.9897C6.12054 19.8785 24.9922 16.7878 37.0632 8.88916C46.5841 20.7371 50.1544 23.8278 53.5547 24.1712C48.2842 29.4942 30.7727 38.0796 20.9118 26.9186C9.35082 34.302 0 17.9897 0 17.9897Z" fill="#E9EDF9"/>
<path d="M156.615 60.923C163.076 61.2664 180.587 53.3679 190.108 42.7219C202.349 51.8225 206.43 53.883 210 53.3679C206.09 59.8928 194.189 74.1446 177.357 75.1748C165.116 67.9631 156.615 60.923 156.615 60.923Z" fill="#E9EDF9"/>
<path d="M105.043 141.466C103.765 135.096 91.7879 120.027 79.1522 113.417C84.8771 99.241 85.8473 94.7582 84.4613 91.4132C91.7263 93.592 108.431 101.62 113.617 117.738C109.713 131.443 105.043 141.466 105.043 141.466Z" fill="white"/>
</svg>
