<svg width="28" height="28" viewBox="0 0 28 28" fill="none" xmlns="http://www.w3.org/2000/svg">
<path d="M4.92394 14.1127C5.10662 12.9824 6.08242 12.1516 7.22738 12.1516H20.7718C21.9168 12.1516 22.8926 12.9824 23.0753 14.1127L23.4877 16.6644C23.717 18.0833 22.6215 19.3701 21.1842 19.3701H6.81495C5.37773 19.3701 4.2822 18.0833 4.51151 16.6644L4.92394 14.1127Z" stroke="#122535"/>
<path d="M8.16034 8.84934C8.44445 6.88139 10.1309 5.4209 12.1193 5.4209H15.8802C17.8685 5.4209 19.555 6.88139 19.8391 8.84934L20.3159 12.1515H7.68359L8.16034 8.84934Z" stroke="#122535"/>
<path d="M6.88281 19.3699H10.492V21.1745C10.492 22.1711 9.68409 22.9791 8.68743 22.9791V22.9791C7.69077 22.9791 6.88281 22.1711 6.88281 21.1745V19.3699Z" stroke="#122535"/>
<path d="M17.541 19.3699H21.1502V21.1745C21.1502 22.1711 20.3423 22.9791 19.3456 22.9791V22.9791C18.349 22.9791 17.541 22.1711 17.541 21.1745V19.3699Z" stroke="#122535"/>
<circle cx="8.17972" cy="15.7034" r="1.15433" fill="#122535"/>
<circle cx="19.8737" cy="15.6911" r="1.16667" fill="#122535"/>
</svg>
