<svg fill="none" height="70" viewBox="0 0 235 70" width="235" xmlns="http://www.w3.org/2000/svg"><clipPath id="a"><path d="m0 .957886h68.9579v68.9579h-68.9579z"/></clipPath><clipPath id="b"><path d="m79.1739 12.4508h155.794v57.4649h-155.794z"/></clipPath><g clip-path="url(#a)"><path d="m22.986 58.3286c0-6.3474-5.1456-11.493-11.493-11.493-6.34741 0-11.493 5.1456-11.493 11.493s5.14559 11.4929 11.493 11.4929c6.3474 0 11.493-5.1455 11.493-11.4929z" fill="#308dff"/><path d="m45.9719 58.4227c0-6.3474-5.1456-11.493-11.493-11.493s-11.4929 5.1456-11.4929 11.493 5.1455 11.4929 11.4929 11.4929 11.493-5.1455 11.493-11.4929z" fill="#308dff"/><path d="m45.9719 35.4367c0-6.3474-5.1456-11.493-11.493-11.493s-11.4929 5.1456-11.4929 11.493 5.1455 11.493 11.4929 11.493 11.493-5.1456 11.493-11.493z" fill="#47b7ff"/><path d="m68.9579 58.4227c0-6.3474-5.1456-11.493-11.493-11.493s-11.493 5.1456-11.493 11.493 5.1456 11.4929 11.493 11.4929 11.493-5.1455 11.493-11.4929z" fill="#308dff"/><path d="m68.9579 35.4367c0-6.3474-5.1456-11.493-11.493-11.493s-11.493 5.1456-11.493 11.493 5.1456 11.493 11.493 11.493 11.493-5.1456 11.493-11.493z" fill="#47b7ff"/><path d="m68.9579 12.4509c0-6.34743-5.1456-11.493009-11.493-11.493009s-11.493 5.145579-11.493 11.493009c0 6.3474 5.1456 11.4929 11.493 11.4929s11.493-5.1455 11.493-11.4929z" fill="#5cdaff"/></g><g clip-path="url(#b)"><path d="m136.18 41.2514c0 4.0609-.689 7.828-2.068 11.3015-1.354 3.4734-3.282 6.4743-5.785 9.0028-2.478 2.5285-5.466 4.5206-8.965 5.9763-3.499 1.4303-7.381 2.1454-11.646 2.1454s-8.1474-.7151-11.6464-2.1454c-3.499-1.4557-6.4999-3.4478-9.0028-5.9763s-4.444-5.5294-5.8231-9.0028c-1.3537-3.4735-2.0305-7.2406-2.0305-11.3015 0-4.0608.6768-7.8152 2.0305-11.2631 1.3791-3.4734 3.3202-6.4744 5.8231-9.0028 2.5029-2.5285 5.5038-4.5078 9.0028-5.9381 3.499-1.4557 7.3814-2.1836 11.6464-2.1836s8.147.7279 11.646 2.1836c3.499 1.4303 6.487 3.4224 8.965 5.9764 2.503 2.5284 4.431 5.5294 5.785 9.0028 1.379 3.4479 2.068 7.1895 2.068 11.2248zm-11.761 0c0-2.9115-.383-5.5166-1.149-7.8152-.766-2.3241-1.878-4.2907-3.333-5.8997-1.431-1.6346-3.18-2.8733-5.249-3.7161-2.043-.8683-4.367-1.3025-6.972-1.3025s-4.942.4342-7.011 1.3025c-2.0686.8428-3.8309 2.0815-5.2867 3.7161-1.4302 1.609-2.5284 3.5756-3.2946 5.8997-.7662 2.2986-1.1493 4.9037-1.1493 7.8152 0 2.9371.3831 5.5677 1.1493 7.8919.7662 2.2986 1.8644 4.2524 3.2946 5.8614 1.4558 1.609 3.2181 2.8477 5.2867 3.7161 2.069.8428 4.406 1.2642 7.011 1.2642s4.929-.4214 6.972-1.2642c2.069-.8684 3.818-2.1071 5.249-3.7161 1.455-1.609 2.567-3.5628 3.333-5.8614.766-2.3242 1.149-4.9548 1.149-7.8919zm32.262 28.426c-1.788 0-3.371-.2554-4.75-.7662-1.379-.5363-2.541-1.2898-3.486-2.2603s-1.66-2.1453-2.146-3.5245c-.485-1.3792-.728-2.9371-.728-4.6738v-21.3003h-3.716c-.562 0-1.047-.1788-1.455-.5364-.384-.3575-.575-.8939-.575-1.609v-4.1375l6.321-1.1493 2.145-10.2287c.281-1.1493 1.06-1.724 2.337-1.724h5.517v12.0294h15.554l2.222-10.3054c.281-1.1493 1.06-1.724 2.337-1.724h5.478v12.0294h10.19v7.3555h-10.19v20.6107c0 1.0982.268 1.9666.804 2.6051.537.6385 1.277.9577 2.222.9577.511 0 .945-.051 1.303-.1532.358-.1277.664-.2554.919-.3831.256-.1532.486-.2809.69-.3831.23-.1277.46-.1916.69-.1916.306 0 .561.0767.766.2299.204.1277.408.3576.613.6896l3.179 5.0569c-1.455 1.1493-3.103 2.0177-4.942 2.6051-1.838.5874-3.741.8811-5.708.8811-1.788 0-3.371-.2554-4.75-.7662-1.379-.5363-2.541-1.2898-3.486-2.2603s-1.66-2.1453-2.146-3.5245c-.485-1.3792-.728-2.9371-.728-4.6738v-21.3003h-15.017v20.6107c0 1.0982.255 1.9666.766 2.6051.536.6385 1.29.9577 2.26.9577.511 0 .945-.051 1.303-.1532.357-.1277.664-.2554.919-.3831.256-.1532.486-.2809.69-.3831.23-.1277.46-.1916.69-.1916.306 0 .561.0767.766.2299.204.1277.408.3576.613.6896l3.179 5.0569c-1.455 1.1493-3.103 2.0177-4.942 2.6051-1.838.5874-3.741.8811-5.708.8811zm58.349-40.7235c2.962 0 5.657.4725 8.083 1.4175s4.508 2.2986 6.245 4.0609c1.736 1.7367 3.077 3.8565 4.022 6.3594s1.418 5.3251 1.418 8.4665-.473 5.9764-1.418 8.5048c-.945 2.5029-2.286 4.6355-4.022 6.3978-1.737 1.7622-3.819 3.1158-6.245 4.0608s-5.121 1.4175-8.083 1.4175c-2.988 0-5.708-.4725-8.16-1.4175-2.427-.945-4.508-2.2986-6.245-4.0608-1.736-1.7623-3.09-3.8949-4.061-6.3978-.945-2.5284-1.417-5.3634-1.417-8.5048s.472-5.9636 1.417-8.4665c.971-2.5029 2.325-4.6227 4.061-6.3594 1.737-1.7623 3.818-3.1159 6.245-4.0609 2.452-.945 5.172-1.4175 8.16-1.4175zm0 32.755c3.014 0 5.248-1.0343 6.704-3.1031 1.456-2.0942 2.184-5.1973 2.184-9.3093 0-4.0864-.728-7.1639-2.184-9.2327-1.456-2.0943-3.69-3.1414-6.704-3.1414-3.091 0-5.364 1.0471-6.819 3.1414-1.456 2.0688-2.184 5.1463-2.184 9.2327 0 4.112.728 7.2151 2.184 9.3093 1.455 2.0688 3.728 3.1031 6.819 3.1031z" fill="#fff"/></g></svg>