<svg fill="none" height="69" viewBox="0 0 235 69" width="235" xmlns="http://www.w3.org/2000/svg"><clipPath id="a"><path d="m0 0h68.9579v68.9579h-68.9579z"/></clipPath><clipPath id="b"><path d="m79.1739 11.493h155.794v57.4649h-155.794z"/></clipPath><g clip-path="url(#a)"><path d="m22.986 57.3708c0-6.3474-5.1456-11.493-11.493-11.493-6.34741 0-11.493 5.1456-11.493 11.493s5.14559 11.493 11.493 11.493c6.3474 0 11.493-5.1456 11.493-11.493z" fill="#308dff"/><path d="m45.9719 57.4649c0-6.3474-5.1456-11.493-11.493-11.493s-11.4929 5.1456-11.4929 11.493 5.1455 11.493 11.4929 11.493 11.493-5.1456 11.493-11.493z" fill="#308dff"/><path d="m45.9719 34.4789c0-6.3474-5.1456-11.4929-11.493-11.4929s-11.4929 5.1455-11.4929 11.4929 5.1455 11.493 11.4929 11.493 11.493-5.1456 11.493-11.493z" fill="#47b7ff"/><path d="m68.9579 57.4649c0-6.3474-5.1456-11.493-11.493-11.493s-11.493 5.1456-11.493 11.493 5.1456 11.493 11.493 11.493 11.493-5.1456 11.493-11.493z" fill="#308dff"/><path d="m68.9579 34.4789c0-6.3474-5.1456-11.4929-11.493-11.4929s-11.493 5.1455-11.493 11.4929 5.1456 11.493 11.493 11.493 11.493-5.1456 11.493-11.493z" fill="#47b7ff"/><path d="m68.9579 11.493c0-6.34741-5.1456-11.49299428-11.493-11.49299428s-11.493 5.14558428-11.493 11.49299428c0 6.3474 5.1456 11.493 11.493 11.493s11.493-5.1456 11.493-11.493z" fill="#5cdaff"/></g><g clip-path="url(#b)"><path d="m136.18 40.2935c0 4.0609-.689 7.828-2.068 11.3015-1.354 3.4734-3.282 6.4744-5.785 9.0028-2.478 2.5285-5.466 4.5206-8.965 5.9764-3.499 1.4302-7.381 2.1453-11.646 2.1453s-8.1474-.7151-11.6464-2.1453c-3.499-1.4558-6.4999-3.4479-9.0028-5.9764-2.5029-2.5284-4.444-5.5294-5.8231-9.0028-1.3537-3.4735-2.0305-7.2406-2.0305-11.3015 0-4.0608.6768-7.8152 2.0305-11.2631 1.3791-3.4734 3.3202-6.4744 5.8231-9.0028 2.5029-2.5285 5.5038-4.5078 9.0028-5.938 3.499-1.4558 7.3814-2.1837 11.6464-2.1837s8.147.7279 11.646 2.1837c3.499 1.4302 6.487 3.4223 8.965 5.9763 2.503 2.5285 4.431 5.5294 5.785 9.0028 1.379 3.4479 2.068 7.1895 2.068 11.2248zm-11.761 0c0-2.9115-.383-5.5166-1.149-7.8152-.766-2.3241-1.878-4.2907-3.333-5.8997-1.431-1.6346-3.18-2.8733-5.249-3.7161-2.043-.8683-4.367-1.3025-6.972-1.3025s-4.942.4342-7.011 1.3025c-2.0686.8428-3.8309 2.0815-5.2867 3.7161-1.4302 1.609-2.5284 3.5756-3.2946 5.8997-.7662 2.2986-1.1493 4.9037-1.1493 7.8152 0 2.9371.3831 5.5678 1.1493 7.8919.7662 2.2986 1.8644 4.2524 3.2946 5.8614 1.4558 1.609 3.2181 2.8477 5.2867 3.7161 2.069.8428 4.406 1.2642 7.011 1.2642s4.929-.4214 6.972-1.2642c2.069-.8684 3.818-2.1071 5.249-3.7161 1.455-1.609 2.567-3.5628 3.333-5.8614.766-2.3241 1.149-4.9548 1.149-7.8919zm32.262 28.426c-1.788 0-3.371-.2554-4.75-.7662-1.379-.5363-2.541-1.2897-3.486-2.2603-.945-.9705-1.66-2.1453-2.146-3.5245-.485-1.3791-.728-2.9371-.728-4.6738v-21.3003h-3.716c-.562 0-1.047-.1788-1.455-.5364-.384-.3575-.575-.8939-.575-1.609v-4.1374l6.321-1.1493 2.145-10.2288c.281-1.1493 1.06-1.7239 2.337-1.7239h5.517v12.0293h15.554l2.222-10.3054c.281-1.1493 1.06-1.7239 2.337-1.7239h5.478v12.0293h10.19v7.3555h-10.19v20.6107c0 1.0982.268 1.9666.804 2.6051.537.6385 1.277.9578 2.222.9578.511 0 .945-.0511 1.303-.1533.358-.1277.664-.2554.919-.3831.256-.1532.486-.2809.69-.3831.23-.1277.46-.1915.69-.1915.306 0 .561.0766.766.2298.204.1277.408.3576.613.6896l3.179 5.0569c-1.455 1.1493-3.103 2.0177-4.942 2.6051-1.838.5874-3.741.8811-5.708.8811-1.788 0-3.371-.2554-4.75-.7662-1.379-.5363-2.541-1.2897-3.486-2.2603-.945-.9705-1.66-2.1453-2.146-3.5245-.485-1.3791-.728-2.9371-.728-4.6738v-21.3003h-15.017v20.6107c0 1.0982.255 1.9666.766 2.6051.536.6385 1.29.9578 2.26.9578.511 0 .945-.0511 1.303-.1533.357-.1277.664-.2554.919-.3831.256-.1532.486-.2809.69-.3831.23-.1277.46-.1915.69-.1915.306 0 .561.0766.766.2298.204.1277.408.3576.613.6896l3.179 5.0569c-1.455 1.1493-3.103 2.0177-4.942 2.6051-1.838.5874-3.741.8811-5.708.8811zm58.349-40.7234c2.962 0 5.657.4724 8.083 1.4174s4.508 2.2986 6.245 4.0609c1.736 1.7367 3.077 3.8565 4.022 6.3594s1.418 5.3251 1.418 8.4665-.473 5.9764-1.418 8.5048c-.945 2.5029-2.286 4.6355-4.022 6.3978-1.737 1.7622-3.819 3.1159-6.245 4.0608-2.426.945-5.121 1.4175-8.083 1.4175-2.988 0-5.708-.4725-8.16-1.4175-2.427-.9449-4.508-2.2986-6.245-4.0608-1.736-1.7623-3.09-3.8949-4.061-6.3978-.945-2.5284-1.417-5.3634-1.417-8.5048s.472-5.9636 1.417-8.4665c.971-2.5029 2.325-4.6227 4.061-6.3594 1.737-1.7623 3.818-3.1159 6.245-4.0609 2.452-.945 5.172-1.4174 8.16-1.4174zm0 32.7549c3.014 0 5.248-1.0343 6.704-3.1031 1.456-2.0942 2.184-5.1973 2.184-9.3093 0-4.0864-.728-7.1639-2.184-9.2327-1.456-2.0942-3.69-3.1414-6.704-3.1414-3.091 0-5.364 1.0472-6.819 3.1414-1.456 2.0688-2.184 5.1463-2.184 9.2327 0 4.112.728 7.2151 2.184 9.3093 1.455 2.0688 3.728 3.1031 6.819 3.1031z" fill="#000"/></g></svg>